<svg id="Layer_2" data-name="Layer 2" xmlns="http://www.w3.org/2000/svg" viewBox="0 0 1080.21 279.76"><defs><style>.cls-1{fill:#139c9a;}.cls-2{fill:#faa22b;}.cls-3{fill:#64c7c8;}.cls-4{fill:#778491;}.cls-5{fill:#eff0f8;}.cls-6{fill:#bbbcbf;}.cls-7{fill:#f89743;}.cls-8{fill:#17b9ad;}</style></defs><title>newlongpixel</title><rect class="cls-1" x="634.52" y="57.99" width="18.13" height="18.13" transform="translate(-224.88 -255.63) rotate(19.85)"/><rect class="cls-2" x="1202.56" y="155.44" width="22.89" height="22.89" transform="translate(-253.79 449.49) rotate(-23.14)"/><rect class="cls-2" x="1024.7" y="58.37" width="15.98" height="19.58" transform="translate(-229.58 370.28) rotate(-23.14)"/><rect class="cls-2" x="827.67" y="88.06" width="16.99" height="16.99" transform="translate(-256.55 295.32) rotate(-23.14)"/><rect class="cls-3" x="669.43" y="247.42" width="19.08" height="19.08" transform="translate(-332.24 246.45) rotate(-23.14)"/><rect class="cls-1" x="1144.02" y="125.49" width="11.77" height="15" transform="translate(-245.63 421.57) rotate(-23.14)"/><rect class="cls-4" x="992.45" y="208.25" width="15.16" height="15.16" transform="translate(-290.24 369.33) rotate(-23.14)"/><rect class="cls-5" x="460.31" y="218.1" width="15.67" height="15.67" transform="translate(-337.02 161.1) rotate(-23.14)"/><rect class="cls-3" x="567.58" y="71.32" width="9.93" height="9.93" transform="translate(-269.8 190.09) rotate(-23.14)"/><rect class="cls-3" x="911" y="85.23" width="27.79" height="27.79" transform="translate(-250.42 330.41) rotate(-23.14)"/><rect class="cls-1" x="726.53" y="88.02" width="12.37" height="12.37" transform="translate(-263.95 254.48) rotate(-23.14)"/><rect class="cls-2" x="1277.38" y="246.2" width="27.77" height="27.77" transform="translate(-284.2 487.35) rotate(-23.14)"/><rect class="cls-2" x="604.05" y="142.05" width="9.86" height="9.86" transform="translate(-294.65 210.1) rotate(-23.14)"/><rect class="cls-4" x="539.92" y="69.01" width="7.41" height="12.58" transform="translate(-271.74 178.64) rotate(-23.14)"/><rect class="cls-4" x="1163.28" y="267.97" width="11.73" height="9.16" transform="translate(-298.93 440.36) rotate(-23.14)"/><rect class="cls-4" x="585.98" y="69.98" width="20.52" height="17.96" transform="translate(-268.94 199.61) rotate(-23.14)"/><rect class="cls-4" x="591.15" y="165.02" width="10.18" height="7.33" transform="translate(-304.21 206.83) rotate(-23.14)"/><rect class="cls-4" x="1153.92" y="249.26" width="12.28" height="15.39" transform="translate(-293.53 435.53) rotate(-23.14)"/><rect class="cls-4" x="1030.94" y="197.22" width="14.38" height="14.38" transform="translate(-282.69 383.38) rotate(-23.14)"/><rect class="cls-1" x="309.12" y="129.67" width="24.43" height="17.59" transform="translate(-314.45 96.36) rotate(-23.14)"/><rect class="cls-1" x="1255.72" y="266.11" width="21.08" height="21.08" transform="translate(-179.08 -343.76) rotate(14.23)"/><rect class="cls-3" x="872.98" y="259.6" width="12.23" height="12.23" transform="translate(-319.58 325.81) rotate(-23.14)"/><rect class="cls-4" x="1234.1" y="270.82" width="12.91" height="12.91" transform="translate(-295.04 468.8) rotate(-23.14)"/><rect class="cls-4" x="929.86" y="220.96" width="15.7" height="15.7" transform="translate(-300.36 345.88) rotate(-23.14)"/><rect class="cls-2" x="412.92" y="44.45" width="20.67" height="16.98" transform="translate(-272.64 129.53) rotate(-23.14)"/><rect class="cls-4" x="681.85" y="142.75" width="23.46" height="10.48" transform="translate(-68.36 -418.75) rotate(35.79)"/><rect class="cls-6" x="627.97" y="151.21" width="11.73" height="11.73" rx="0.63" ry="0.63" transform="translate(-296.62 220.68) rotate(-23.14)"/><rect class="cls-2" x="490.48" y="65.07" width="40.07" height="12.91" transform="translate(-272.92 165.33) rotate(-23.14)"/><rect class="cls-2" x="1049.05" y="170.01" width="11.73" height="11.73" transform="translate(-270.12 387.68) rotate(-23.14)"/><rect class="cls-2" x="1058.15" y="155.08" width="7.17" height="7.17" transform="translate(-262.81 388.98) rotate(-23.14)"/><rect class="cls-3" x="559.32" y="224.2" width="4.78" height="4.78" transform="translate(-329.74 197.92) rotate(-23.14)"/><rect class="cls-1" x="1217.29" y="236.1" width="6.68" height="6.68" transform="translate(-281.77 457.93) rotate(-23.14)"/><rect class="cls-6" x="1064.36" y="134.05" width="8.25" height="8.25" transform="translate(-254.22 389.98) rotate(-23.14)"/><rect class="cls-2" x="918.65" y="247.94" width="10.2" height="12.23" transform="translate(-311.4 342.42) rotate(-23.14)"/><rect class="cls-6" x="550.85" y="73.6" width="10.72" height="10.72" transform="translate(-272.16 183.88) rotate(-23.14)"/><rect class="cls-6" x="443.25" y="154.46" width="10.33" height="5.22" transform="translate(-311.54 147.8) rotate(-23.14)"/><rect class="cls-2" x="389.98" y="74.88" width="26.32" height="18.57"/><rect class="cls-3" x="451.71" y="52.78" width="10.26" height="6.19" transform="translate(-271.09 142.97) rotate(-23.14)"/><rect class="cls-1" x="1080.04" y="248.91" width="16.61" height="22.36" transform="translate(-300.53 407.6) rotate(-23.14)"/><rect class="cls-7" x="771.79" y="294.88" width="12.22" height="12.22" transform="translate(-341.59 288.88) rotate(-23.14)"/><rect class="cls-5" x="1169.1" y="288.96" width="5.44" height="11.07" transform="translate(-307.34 443.17) rotate(-23.14)"/><rect class="cls-5" x="708.42" y="278.06" width="11.24" height="7.13" transform="translate(-339.12 262.22) rotate(-23.14)"/><rect class="cls-5" x="1219.58" y="271.55" width="10.21" height="10.21" transform="translate(-296.07 462.52) rotate(-23.14)"/><rect class="cls-3" x="727.66" y="283.97" width="16.83" height="10.26" transform="translate(-340.28 271.48) rotate(-23.14)"/><rect class="cls-8" x="958.09" y="70.52" width="13.78" height="8.71" transform="translate(15.53 -670.82) rotate(42.28)"/><rect class="cls-8" x="128.34" y="187.38" width="12.61" height="12.61"/><rect class="cls-6" x="179.04" y="32.48" width="20.52" height="20.52"/><rect class="cls-3" x="234.49" y="164.12" width="11.4" height="11.4"/><rect class="cls-8" x="911.22" y="215.3" width="16.9" height="16.9"/><rect class="cls-6" x="121.39" y="91.58" width="11.05" height="11.05"/><rect class="cls-5" x="814.72" y="159.53" width="9.01" height="9.01"/><rect class="cls-2" x="1217.18" y="303.99" width="14.57" height="14.57" transform="translate(-309.69 465.21) rotate(-23.14)"/><rect class="cls-3" x="560.12" y="133.08" width="14.66" height="14.66" transform="translate(-295.41 193.24) rotate(-23.14)"/><rect class="cls-1" x="383.36" y="102.79" width="27.37" height="27.37" transform="translate(-222.75 -168.98) rotate(19.85)"/><rect class="cls-2" x="425.11" y="166.63" width="46.11" height="46.11" transform="translate(-324.38 150.33) rotate(-23.14)"/><rect class="cls-2" x="290.27" y="163.57" width="28.05" height="28.05" transform="translate(-331.2 92.81) rotate(-23.14)"/><rect class="cls-1" x="343.81" y="168.47" width="37.43" height="37.43" transform="translate(-330.29 116.47) rotate(-23.14)"/><rect class="cls-4" x="309.5" y="191.11" width="30.32" height="30.32" transform="translate(-340.83 103.12) rotate(-23.14)"/><rect class="cls-5" x="335.34" y="154.63" width="15.67" height="15.67" transform="translate(-322.13 106.88) rotate(-23.14)"/><rect class="cls-3" x="358.11" y="215.7" width="9.93" height="9.93" transform="translate(-343.4 119.38) rotate(-23.14)"/><rect class="cls-1" x="545.55" y="105.74" width="24.74" height="24.74" transform="translate(-287.41 187.7) rotate(-23.14)"/><rect class="cls-2" x="370.71" y="221.74" width="27.77" height="27.77" transform="translate(-347.55 129.04) rotate(-23.14)"/><rect class="cls-2" x="389.21" y="188.84" width="9.86" height="9.86" transform="translate(-330.33 129.42) rotate(-23.14)"/><rect class="cls-4" x="358.82" y="147.91" width="7.41" height="12.58" transform="translate(-317.32 113.82) rotate(-23.14)"/><rect class="cls-4" x="423.87" y="102.6" width="8.43" height="13.93" transform="translate(-294.51 135.99) rotate(-23.14)"/><rect class="cls-4" x="341.96" y="255.9" width="11.73" height="9.16" transform="translate(-360.28 116.59) rotate(-23.14)"/><rect class="cls-4" x="335.27" y="224.58" width="20.52" height="17.96" transform="translate(-349.88 113.52) rotate(-23.14)"/><rect class="cls-4" x="327.16" y="259.28" width="10.18" height="7.33" transform="translate(-362.5 110.67) rotate(-23.14)"/><rect class="cls-4" x="403.71" y="198.57" width="12.28" height="15.39" transform="translate(-333.98 136.61) rotate(-23.14)"/><rect class="cls-1" x="451.02" y="131.61" width="24.43" height="17.59" transform="translate(-303.8 152.29) rotate(-23.14)"/><rect class="cls-1" x="482.02" y="171.64" width="21.08" height="21.08" transform="translate(-317.86 167.17) rotate(-23.14)"/><rect class="cls-3" x="408.22" y="152.28" width="12.23" height="12.23" transform="translate(-314.8 134.51) rotate(-23.14)"/><rect class="cls-4" x="397.66" y="169.97" width="12.91" height="12.91" transform="translate(-322.71 131.95) rotate(-23.14)"/><rect class="cls-4" x="365.04" y="127.63" width="15.7" height="15.7" transform="translate(-309.13 116.38) rotate(-23.14)"/><rect class="cls-4" x="472.94" y="100.12" width="18.02" height="15.01" transform="translate(-289.41 157) rotate(-23.14)"/><rect class="cls-2" x="803.94" y="158.32" width="20.67" height="16.98" transform="translate(-285.93 292.38) rotate(-23.14)"/><rect class="cls-4" x="529.96" y="135.16" width="23.46" height="10.48" transform="translate(-297.48 183.12) rotate(-23.14)"/><rect class="cls-6" x="500.99" y="152.04" width="11.73" height="11.73" transform="translate(-307.16 170.84) rotate(-23.14)"/><rect class="cls-2" x="497.87" y="121.34" width="40.07" height="12.91" transform="translate(-294.44 172.76) rotate(-23.14)"/><rect class="cls-2" x="385.85" y="158.74" width="11.73" height="11.73" transform="translate(-319.06 126.12) rotate(-23.14)"/><rect class="cls-2" x="453.25" y="119.23" width="7.17" height="7.17" transform="translate(-297.4 148.36) rotate(-23.14)"/><rect class="cls-3" x="357" y="247.03" width="4.78" height="4.78" transform="translate(-355 120.25) rotate(-23.14)"/><rect class="cls-1" x="326.21" y="169.42" width="6.68" height="6.68" transform="translate(-327.27 102.35) rotate(-23.14)"/><rect class="cls-6" x="381.47" y="206" width="8.25" height="8.25" transform="translate(-337.45 127.38) rotate(-23.14)"/><rect class="cls-2" x="437.59" y="137.55" width="10.2" height="12.23" transform="translate(-306.73 144.47) rotate(-23.14)"/><rect class="cls-6" x="481.99" y="124.19" width="10.72" height="10.72" transform="translate(-297.59 160.89) rotate(-23.14)"/><rect class="cls-6" x="477.43" y="156.44" width="10.33" height="5.22" transform="translate(-309.57 161.4) rotate(-23.14)"/><rect class="cls-3" x="484.03" y="142.51" width="10.26" height="6.19" transform="translate(-303.76 162.9) rotate(-23.14)"/><rect class="cls-1" x="516.64" y="158.22" width="16.61" height="22.36" transform="translate(-310.23 178.87) rotate(-23.14)"/><rect class="cls-7" x="390.93" y="137.81" width="12.22" height="12.22" transform="translate(-310.5 126.55) rotate(-23.14)"/><rect class="cls-5" x="429.4" y="152.42" width="9.04" height="14.3" transform="translate(-313.69 142.31) rotate(-23.14)"/><rect class="cls-5" x="517.51" y="142.04" width="11.24" height="7.13" transform="translate(-301.02 176.24) rotate(-23.14)"/><rect class="cls-3" x="555.78" y="85.75" width="16.83" height="10.26" transform="translate(-276.21 187.98) rotate(-23.14)"/><rect class="cls-8" x="155.72" y="57.26" width="18.14" height="18.14"/><rect class="cls-8" x="134.65" y="86.72" width="12.61" height="12.61"/><rect class="cls-8" x="243.31" y="42.06" width="18.14" height="18.14"/><rect class="cls-8" x="27.59" y="194.32" width="16.9" height="16.9"/><rect class="cls-6" x="220.97" y="60.8" width="11.05" height="11.05"/><rect class="cls-5" x="207.3" y="70.9" width="9.01" height="9.01"/><rect class="cls-3" x="784.95" y="197.08" width="14.66" height="14.66" transform="translate(-302.47 286.76) rotate(-23.14)"/><rect class="cls-1" x="636.83" y="106.87" width="27.37" height="27.37" transform="translate(-206.3 -254.81) rotate(19.85)"/><rect class="cls-2" x="678.58" y="170.71" width="46.11" height="46.11" transform="translate(-305.59 250.28) rotate(-23.14)"/><rect class="cls-2" x="542.18" y="153.2" width="28.05" height="28.05" transform="translate(-306.86 190.98) rotate(-23.14)"/><rect class="cls-2" x="876.09" y="104.03" width="28.14" height="28.14" transform="translate(-260.68 318.28) rotate(-23.14)"/><rect class="cls-3" x="576.49" y="96.07" width="30.3" height="30.3" transform="translate(-281.99 200.4) rotate(-23.14)"/><rect class="cls-1" x="597.28" y="172.55" width="37.43" height="37.43" transform="translate(-311.49 216.42) rotate(-23.14)"/><rect class="cls-5" x="583.8" y="144.25" width="15.67" height="15.67" transform="translate(-298.05 203.69) rotate(-23.14)"/><rect class="cls-3" x="333.2" y="247.33" width="9.93" height="9.93" transform="translate(-357.84 112.13) rotate(-23.14)"/><rect class="cls-1" x="795.61" y="214.22" width="24.74" height="24.74" transform="translate(-309.93 294.71) rotate(-23.14)"/><rect class="cls-2" x="824.36" y="165.74" width="27.77" height="27.77" transform="matrix(0.92, -0.39, 0.39, 0.92, -289.03, 302.83)"/><rect class="cls-2" x="614.69" y="113.18" width="9.86" height="9.86" transform="translate(-282.45 211.95) rotate(-23.14)"/><rect class="cls-4" x="612.29" y="151.99" width="7.41" height="12.58" transform="translate(-298.53 213.76) rotate(-23.14)"/><rect class="cls-4" x="507.69" y="85.24" width="9.38" height="13.93" transform="translate(-64.46 482.85) rotate(-66.22)"/><rect class="cls-4" x="793.62" y="182.15" width="11.73" height="9.16" transform="translate(-294.95 288.17) rotate(-23.14)"/><rect class="cls-4" x="657.18" y="202.65" width="12.28" height="15.39" transform="translate(-315.19 236.55) rotate(-23.14)"/><rect class="cls-4" x="735.44" y="210.74" width="14.38" height="14.38" transform="translate(-311.78 268.33) rotate(-23.14)"/><rect class="cls-1" x="704.49" y="135.69" width="24.43" height="17.59" transform="translate(-285 252.24) rotate(-23.14)"/><rect class="cls-1" x="735.49" y="175.72" width="21.08" height="21.08" transform="translate(-299.06 267.12) rotate(-23.14)"/><rect class="cls-3" x="661.69" y="156.36" width="12.23" height="12.23" transform="translate(-296.01 234.46) rotate(-23.14)"/><rect class="cls-4" x="651.13" y="174.05" width="12.91" height="12.91" transform="translate(-303.92 231.9) rotate(-23.14)"/><rect class="cls-4" x="618.5" y="131.71" width="15.7" height="15.7" transform="translate(-290.34 216.33) rotate(-23.14)"/><rect class="cls-4" x="722.83" y="229.84" width="18.02" height="15.01" transform="translate(-320.28 265.65) rotate(-23.14)"/><rect class="cls-2" x="853.51" y="160.19" width="20.67" height="16.98" transform="translate(-282.67 312.01) rotate(-23.14)"/><rect class="cls-4" x="821.02" y="201.33" width="23.46" height="10.48" transform="translate(-232.87 523.49) rotate(-38.59)"/><rect class="cls-6" x="748.74" y="197.37" width="11.73" height="11.73" transform="matrix(0.92, -0.39, 0.39, 0.92, -305.04, 271.86)"/><rect class="cls-2" x="761.49" y="242.96" width="40.07" height="12.91" transform="translate(-269.23 -88.27) rotate(3.5)"/><rect class="cls-2" x="639.31" y="162.82" width="11.73" height="11.73" transform="translate(-300.27 226.07) rotate(-23.14)"/><rect class="cls-2" x="710.45" y="228.31" width="7.17" height="7.17" transform="translate(-319.57 258.22) rotate(-23.14)"/><rect class="cls-3" x="601.31" y="131.94" width="4.78" height="4.78" transform="translate(-290.11 207) rotate(-23.14)"/><rect class="cls-1" x="579.68" y="173.5" width="6.68" height="6.68" transform="translate(-308.48 202.3) rotate(-23.14)"/><rect class="cls-6" x="634.94" y="210.08" width="8.25" height="8.25" transform="translate(-318.65 227.33) rotate(-23.14)"/><rect class="cls-2" x="681.52" y="156.36" width="10.2" height="12.23" transform="translate(-294.49 241.86) rotate(-23.14)"/><rect class="cls-6" x="780.09" y="215.3" width="10.72" height="10.72" transform="translate(-309.41 285.38) rotate(-23.14)"/><rect class="cls-6" x="730.9" y="160.52" width="10.33" height="5.22" transform="translate(-290.77 261.34) rotate(-23.14)"/><rect class="cls-2" x="609.64" y="89.84" width="26.32" height="18.57" transform="translate(-274.73 211.68) rotate(-23.14)"/><rect class="cls-1" x="770.11" y="162.3" width="16.61" height="22.36" transform="translate(-291.43 278.82) rotate(-23.14)"/><rect class="cls-7" x="644.4" y="141.89" width="12.22" height="12.22" transform="translate(-291.71 226.5) rotate(-23.14)"/><rect class="cls-5" x="764.45" y="210.29" width="5.44" height="11.07" transform="translate(-308.98 277.81) rotate(-23.14)"/><rect class="cls-5" x="772.5" y="232.1" width="10.8" height="4.03" transform="translate(-315.31 283.5) rotate(-23.14)"/><rect class="cls-5" x="866.13" y="125.84" width="9.04" height="14.3" transform="translate(-268.1 311.81) rotate(-23.14)"/><rect class="cls-5" x="843.11" y="148.52" width="11.24" height="7.13" transform="translate(-277.36 304.73) rotate(-23.14)"/><rect class="cls-5" x="715.67" y="214.35" width="10.21" height="10.21" transform="translate(-314.14 259.86) rotate(-23.14)"/><rect class="cls-3" x="827.75" y="218.53" width="16.83" height="10.26" transform="translate(-306.51 305.55) rotate(-23.14)"/><rect class="cls-8" x="631.63" y="150.77" width="14.53" height="14.53"/><rect class="cls-8" x="381.81" y="97.1" width="12.61" height="12.61"/><rect class="cls-4" x="601.55" y="146.37" width="25.83" height="25.83"/><rect class="cls-3" x="853.64" y="145.12" width="36.11" height="5.74" transform="translate(-243.1 414.6) rotate(-30)"/><rect class="cls-8" x="518.33" y="148.62" width="18.14" height="18.14"/><rect class="cls-6" x="459.04" y="189.03" width="11.05" height="11.05"/><rect class="cls-5" x="637.14" y="134.05" width="9.01" height="9.01"/><rect class="cls-3" x="1015.23" y="143.75" width="14.66" height="14.66" transform="translate(-262.98 372.97) rotate(-23.14)"/><rect class="cls-1" x="838.46" y="113.46" width="27.37" height="27.37" transform="translate(-192.08 -322.88) rotate(19.85)"/><rect class="cls-2" x="859.33" y="193.95" width="22.79" height="15.57" transform="translate(-295.11 317.37) rotate(-23.14)"/><rect class="cls-2" x="741.68" y="133.97" width="28.05" height="28.05" transform="translate(-283.24 267.84) rotate(-23.14)"/><rect class="cls-1" x="1115.54" y="233.75" width="30.7" height="30.7" transform="translate(-292.79 423.44) rotate(-23.14)"/><rect class="cls-4" x="776.85" y="129.61" width="30.32" height="30.32" transform="translate(-279.06 281.85) rotate(-23.14)"/><rect class="cls-5" x="789.23" y="166.8" width="15.67" height="15.67" transform="translate(-290.39 286.24) rotate(-23.14)"/><rect class="cls-3" x="648.02" y="191.2" width="9.93" height="9.93" transform="translate(-310.44 231.35) rotate(-23.14)"/><rect class="cls-1" x="1000.66" y="116.41" width="24.74" height="24.74" transform="translate(-254.99 367.43) rotate(-23.14)"/><rect class="cls-2" x="825.81" y="232.41" width="27.77" height="27.77" transform="translate(-315.12 308.76) rotate(-23.14)"/><rect class="cls-2" x="767.57" y="195.43" width="9.86" height="9.86" transform="translate(-302.47 278.66) rotate(-23.14)"/><rect class="cls-4" x="676.61" y="220.29" width="7.41" height="12.58" transform="translate(-320.2 244.54) rotate(-23.14)"/><rect class="cls-4" x="895.77" y="134.13" width="8.43" height="13.93" transform="translate(-152.63 -391.94) rotate(23.78)"/><rect class="cls-4" x="777.66" y="260.24" width="11.73" height="9.16" transform="translate(-326.92 288.18) rotate(-23.14)"/><rect class="cls-4" x="799.14" y="254.58" width="20.52" height="17.96" transform="translate(-324.34 298.25) rotate(-23.14)"/><rect class="cls-4" x="737.02" y="245.75" width="10.18" height="7.33" transform="translate(-324.2 270.66) rotate(-23.14)"/><rect class="cls-4" x="846.7" y="200.14" width="12.28" height="15.39" transform="translate(-298.95 310.83) rotate(-23.14)"/><rect class="cls-1" x="876.76" y="167.08" width="24.43" height="17.59" transform="translate(-283.48 322.47) rotate(-23.14)"/><rect class="cls-1" x="937.12" y="182.31" width="21.08" height="21.08" transform="translate(-285.43 346.9) rotate(-23.14)"/><rect class="cls-3" x="876.61" y="151.94" width="12.23" height="12.23" transform="translate(-276.98 318.57) rotate(-23.14)"/><rect class="cls-4" x="852.71" y="222.12" width="12.91" height="12.91" transform="translate(-306.59 314.99) rotate(-23.14)"/><rect class="cls-4" x="820.14" y="138.3" width="15.7" height="15.7" transform="translate(-276.7 296.11) rotate(-23.14)"/><rect class="cls-4" x="921.2" y="118.17" width="18.02" height="15.01" transform="translate(-260.43 334.63) rotate(-23.14)"/><rect class="cls-2" x="1259.04" y="168.99" width="20.67" height="16.98" transform="translate(-253.5 472.1) rotate(-23.14)"/><rect class="cls-4" x="985.06" y="145.84" width="23.46" height="10.48" transform="translate(-265.06 362.84) rotate(-23.14)"/><rect class="cls-6" x="956.1" y="162.71" width="11.73" height="11.73" transform="matrix(0.92, -0.39, 0.39, 0.92, -274.73, 350.56)"/><rect class="cls-2" x="952.97" y="132.01" width="40.07" height="12.91" transform="translate(-262.01 352.48) rotate(-23.14)"/><rect class="cls-2" x="840.95" y="169.41" width="11.73" height="11.73" transform="translate(-286.63 305.85) rotate(-23.14)"/><rect class="cls-2" x="908.36" y="129.9" width="7.17" height="7.17" transform="translate(-264.97 328.08) rotate(-23.14)"/><rect class="cls-3" x="815.79" y="245.81" width="4.78" height="4.78" transform="translate(-317.6 300.46) rotate(-23.14)"/><rect class="cls-1" x="781.32" y="188.81" width="6.68" height="6.68" transform="translate(-298.27 282.78) rotate(-23.14)"/><rect class="cls-6" x="899.99" y="153.17" width="8.25" height="8.25" transform="translate(-274.96 326.92) rotate(-23.14)"/><rect class="cls-2" x="708.94" y="242.08" width="10.2" height="12.23" transform="translate(-325.98 259.53) rotate(-23.14)"/><rect class="cls-6" x="937.1" y="134.86" width="10.72" height="10.72" transform="translate(-265.16 340.62) rotate(-23.14)"/><rect class="cls-6" x="932.54" y="167.12" width="10.33" height="5.22" transform="translate(-277.14 341.12) rotate(-23.14)"/><rect class="cls-3" x="939.14" y="153.19" width="10.26" height="6.19" transform="translate(-271.33 342.62) rotate(-23.14)"/><rect class="cls-1" x="971.74" y="168.9" width="16.61" height="22.36" transform="translate(-277.8 358.6) rotate(-23.14)"/><rect class="cls-7" x="905.23" y="167.37" width="12.22" height="12.22" transform="translate(-280.74 331.06) rotate(-23.14)"/><rect class="cls-5" x="757.59" y="222.95" width="9.04" height="14.3" transform="translate(-315 276.97) rotate(-23.14)"/><rect class="cls-5" x="972.61" y="152.72" width="11.24" height="7.13" transform="translate(-268.59 355.97) rotate(-23.14)"/><rect class="cls-3" x="1010.88" y="96.42" width="16.83" height="10.26" transform="translate(-243.78 367.7) rotate(-23.14)"/><rect class="cls-8" x="629.82" y="100.65" width="18.14" height="18.14"/><rect class="cls-8" x="438.88" y="209.58" width="12.61" height="12.61"/><rect class="cls-8" x="698.41" y="52.73" width="18.14" height="18.14"/><rect class="cls-8" x="468.72" y="216.19" width="16.9" height="16.9"/><rect class="cls-6" x="676.07" y="71.47" width="11.05" height="11.05"/><rect class="cls-5" x="662.41" y="81.57" width="9.01" height="9.01"/><rect class="cls-3" x="1283.93" y="211.18" width="14.66" height="14.66" transform="translate(-267.86 484) rotate(-23.14)"/><rect class="cls-1" x="1091.93" y="117.54" width="27.37" height="27.37" transform="matrix(0.94, 0.34, -0.34, 0.94, -175.64, -408.71)"/><rect class="cls-2" x="1133.69" y="181.39" width="46.11" height="46.11" transform="translate(-273.16 430) rotate(-23.14)"/><rect class="cls-2" x="997.29" y="163.87" width="28.05" height="28.05" transform="translate(-274.43 370.71) rotate(-23.14)"/><rect class="cls-2" x="1331.2" y="114.71" width="28.14" height="28.14" transform="translate(-228.25 498.01) rotate(-23.14)"/><rect class="cls-3" x="1031.59" y="106.74" width="30.3" height="30.3" transform="translate(-249.57 380.13) rotate(-23.14)"/><rect class="cls-1" x="1052.39" y="183.22" width="37.43" height="37.43" transform="translate(-279.06 396.14) rotate(-23.14)"/><rect class="cls-5" x="1038.9" y="154.92" width="15.67" height="15.67" transform="translate(-265.63 383.41) rotate(-23.14)"/><rect class="cls-3" x="692.24" y="232.38" width="9.93" height="9.93" transform="translate(-323.07 252.04) rotate(-23.14)"/><rect class="cls-1" x="1250.71" y="224.89" width="24.74" height="24.74" transform="translate(-277.5 474.44) rotate(-23.14)"/><rect class="cls-2" x="1279.46" y="176.41" width="27.77" height="27.77" transform="matrix(0.92, -0.39, 0.39, 0.92, -256.61, 482.55)"/><rect class="cls-2" x="1069.79" y="123.85" width="9.86" height="9.86" transform="translate(-250.02 391.68) rotate(-23.14)"/><rect class="cls-4" x="1067.4" y="162.66" width="7.41" height="12.58" transform="translate(-266.1 393.49) rotate(-23.14)"/><rect class="cls-4" x="962.79" y="95.92" width="9.38" height="13.93" transform="translate(197.39 905.7) rotate(-66.22)"/><rect class="cls-4" x="1250.05" y="189.5" width="11.73" height="9.16" transform="translate(-261.11 468.15) rotate(-23.14)"/><rect class="cls-4" x="1112.29" y="213.33" width="12.28" height="15.39" transform="translate(-282.76 416.28) rotate(-23.14)"/><rect class="cls-4" x="1190.55" y="221.41" width="14.38" height="14.38" transform="translate(-279.35 448.06) rotate(-23.14)"/><rect class="cls-1" x="1159.6" y="146.36" width="24.43" height="17.59" transform="translate(-252.57 431.96) rotate(-23.14)"/><rect class="cls-1" x="1190.59" y="186.39" width="21.08" height="21.08" transform="translate(-266.63 446.84) rotate(-23.14)"/><rect class="cls-3" x="1116.8" y="167.03" width="12.23" height="12.23" transform="translate(-263.58 414.19) rotate(-23.14)"/><rect class="cls-4" x="1106.24" y="184.72" width="12.91" height="12.91" transform="translate(-271.49 411.62) rotate(-23.14)"/><rect class="cls-4" x="1073.61" y="142.38" width="15.7" height="15.7" transform="translate(-257.91 396.05) rotate(-23.14)"/><rect class="cls-4" x="1177.93" y="240.51" width="18.02" height="15.01" transform="translate(-287.85 445.38) rotate(-23.14)"/><rect class="cls-2" x="1308.62" y="170.86" width="20.67" height="16.98" transform="translate(-250.24 491.73) rotate(-23.14)"/><rect class="cls-4" x="1302.22" y="204.19" width="23.46" height="10.48" transform="translate(-129.57 824.28) rotate(-38.59)"/><rect class="cls-6" x="1203.85" y="208.04" width="11.73" height="11.73" transform="matrix(0.92, -0.39, 0.39, 0.92, -272.61, 451.58)"/><rect class="cls-2" x="1216.59" y="253.63" width="40.07" height="12.91" transform="translate(-267.73 -116) rotate(3.5)"/><rect class="cls-2" x="1094.42" y="173.49" width="11.73" height="11.73" transform="translate(-267.84 405.79) rotate(-23.14)"/><rect class="cls-2" x="1165.56" y="238.99" width="7.17" height="7.17" transform="translate(-287.15 437.94) rotate(-23.14)"/><rect class="cls-3" x="1056.41" y="142.62" width="4.78" height="4.78" transform="translate(-257.68 386.73) rotate(-23.14)"/><rect class="cls-1" x="1034.79" y="184.17" width="6.68" height="6.68" transform="translate(-276.05 382.02) rotate(-23.14)"/><rect class="cls-6" x="1090.04" y="220.75" width="8.25" height="8.25" transform="translate(-286.22 407.05) rotate(-23.14)"/><rect class="cls-2" x="1136.63" y="167.03" width="10.2" height="12.23" transform="translate(-262.06 421.58) rotate(-23.14)"/><rect class="cls-6" x="1235.2" y="225.98" width="10.72" height="10.72" transform="translate(-276.98 465.11) rotate(-23.14)"/><rect class="cls-6" x="1186.01" y="171.2" width="10.33" height="5.22" transform="translate(-258.35 441.07) rotate(-23.14)"/><rect class="cls-2" x="1225.78" y="203.45" width="26.32" height="18.57" transform="translate(-269.8 462.98) rotate(-23.14)"/><rect class="cls-1" x="1225.21" y="172.98" width="16.61" height="22.36" transform="translate(490.35 -1017.26) rotate(60)"/><rect class="cls-7" x="1099.51" y="152.56" width="12.22" height="12.22" transform="translate(-259.28 406.22) rotate(-23.14)"/><rect class="cls-5" x="1219.55" y="220.97" width="5.44" height="11.07" transform="translate(-276.55 457.53) rotate(-23.14)"/><rect class="cls-5" x="1227.61" y="242.78" width="10.8" height="4.03" transform="translate(-282.88 463.22) rotate(-23.14)"/><rect class="cls-5" x="1321.24" y="136.51" width="9.04" height="14.3" transform="translate(-235.67 491.54) rotate(-23.14)"/><rect class="cls-5" x="1298.22" y="159.19" width="11.24" height="7.13" transform="translate(-244.94 484.46) rotate(-23.14)"/><rect class="cls-5" x="1170.77" y="225.02" width="10.21" height="10.21" transform="translate(-281.71 439.59) rotate(-23.14)"/><rect class="cls-3" x="1282.85" y="229.21" width="16.83" height="10.26" transform="translate(-274.08 485.28) rotate(-23.14)"/><rect class="cls-8" x="1062.06" y="106.13" width="18.14" height="18.14"/><rect class="cls-8" x="836.92" y="107.78" width="12.61" height="12.61"/><rect class="cls-4" x="1049.08" y="128.36" width="25.83" height="25.83"/><rect class="cls-3" x="1308.74" y="155.8" width="36.11" height="5.74" transform="translate(-187.47 643.58) rotate(-30)"/><rect class="cls-8" x="973.44" y="159.29" width="18.14" height="18.14"/><rect class="cls-6" x="914.14" y="199.7" width="11.05" height="11.05"/><rect class="cls-5" x="1044.58" y="167.16" width="9.01" height="9.01"/><rect class="cls-1" x="1332.33" y="224.69" width="14.29" height="14.29" transform="translate(-269.22 504.03) rotate(-23.14)"/></svg>